<?xml version="1.0"?>
<svg xmlns="http://www.w3.org/2000/svg" xmlns:xlink="http://www.w3.org/1999/xlink" version="1.1" id="Capa_1" x="0px" y="0px" viewBox="0 0 512 512" style="enable-background:new 0 0 512 512;" xml:space="preserve" width="512px" height="512px"><g><g>
	<g>
		<path d="M482,361v-15c0-110.16-79.934-202.074-185.087-221.296C299.529,119.003,301,112.672,301,106c0-24.813-20.187-45-45-45    s-45,20.187-45,45c0,6.672,1.471,13.003,4.087,18.704C109.934,143.926,30,235.84,30,346v15H0v15c0,41.355,33.645,75,75,75h362    c41.355,0,75-33.645,75-75v-15H482z M256,91c8.271,0,15,6.729,15,15s-6.729,15-15,15s-15-6.729-15-15S247.729,91,256,91z M60,346    c0-107.523,87.925-195,196-195s196,87.477,196,195v15H60V346z M437,421H75c-19.556,0-36.239-12.639-42.43-30.1h446.86    C473.239,408.361,456.557,421,437,421z" data-original="#000000" class="active-path" data-old_color="#aa0024" fill="#AA0024"/>
	</g>
</g><g>
	<g>
		<path d="M256,181c-44.006,0-85.423,17.181-116.621,48.379l21.213,21.213C186.124,225.061,220.007,211,256,211    s69.876,14.061,95.408,39.592l21.213-21.213C341.423,198.181,300.006,181,256,181z" data-original="#000000" class="active-path" data-old_color="#aa0024" fill="#AA0024"/>
	</g>
</g></g> </svg>
